<svg xmlns="http://www.w3.org/2000/svg" xmlns:xlink="http://www.w3.org/1999/xlink" width="1080" zoomAndPan="magnify" viewBox="0 0 810 809.999993" height="1080" preserveAspectRatio="xMidYMid meet" version="1.0"><defs><g/><clipPath id="d25a6f0e5a"><path d="M 405 0 C 181.324219 0 0 181.324219 0 405 C 0 628.675781 181.324219 810 405 810 C 628.675781 810 810 628.675781 810 405 C 810 181.324219 628.675781 0 405 0 Z M 405 0 " clip-rule="nonzero"/></clipPath><clipPath id="7bade7465f"><path d="M 0 0 L 810 0 L 810 810 L 0 810 Z M 0 0 " clip-rule="nonzero"/></clipPath><clipPath id="3b213ff156"><path d="M 405 0 C 181.324219 0 0 181.324219 0 405 C 0 628.675781 181.324219 810 405 810 C 628.675781 810 810 628.675781 810 405 C 810 181.324219 628.675781 0 405 0 Z M 405 0 " clip-rule="nonzero"/></clipPath><clipPath id="09d54c31b9"><rect x="0" width="810" y="0" height="810"/></clipPath><clipPath id="0630ea37fd"><rect x="0" width="428" y="0" height="792"/></clipPath><clipPath id="cdc2c2a64a"><rect x="0" width="164" y="0" height="810"/></clipPath></defs><rect x="-81" width="972" fill="#ffffff" y="-80.999999" height="971.999992" fill-opacity="1"/><g clip-path="url(#d25a6f0e5a)"><g transform="matrix(1, 0, 0, 1, 0, 0.000000000000039746)"><g clip-path="url(#09d54c31b9)"><g clip-path="url(#7bade7465f)"><g clip-path="url(#3b213ff156)"><rect x="-178.2" width="1166.4" fill="#3c183d" height="1166.39999" y="-178.199998" fill-opacity="1"/></g></g></g></g></g><g transform="matrix(1, 0, 0, 1, 105, 7)"><g clip-path="url(#0630ea37fd)"><g fill="#d2cbfe" fill-opacity="1"><g transform="translate(0.918717, 602.271814)"><g><path d="M 234.1875 7.296875 C 191.207031 7.296875 154.304688 -1.925781 123.484375 -20.375 C 92.660156 -38.832031 68.9375 -64.582031 52.3125 -97.625 C 35.6875 -130.675781 27.375 -168.898438 27.375 -212.296875 C 27.375 -255.691406 35.6875 -294.015625 52.3125 -327.265625 C 68.9375 -360.515625 92.660156 -386.46875 123.484375 -405.125 C 154.304688 -423.78125 191.207031 -433.109375 234.1875 -433.109375 C 285.289062 -433.109375 327.164062 -420.429688 359.8125 -395.078125 C 392.457031 -369.734375 412.832031 -334.148438 420.9375 -288.328125 L 335.171875 -288.328125 C 329.898438 -311.441406 318.644531 -329.585938 301.40625 -342.765625 C 284.175781 -355.953125 261.367188 -362.546875 232.984375 -362.546875 C 193.640625 -362.546875 162.816406 -349.160156 140.515625 -322.390625 C 118.210938 -295.628906 107.0625 -258.929688 107.0625 -212.296875 C 107.0625 -165.660156 118.210938 -129.0625 140.515625 -102.5 C 162.816406 -75.9375 193.640625 -62.65625 232.984375 -62.65625 C 261.367188 -62.65625 284.175781 -68.835938 301.40625 -81.203125 C 318.644531 -93.578125 329.898438 -110.710938 335.171875 -132.609375 L 420.9375 -132.609375 C 412.832031 -88.804688 392.457031 -54.535156 359.8125 -29.796875 C 327.164062 -5.066406 285.289062 7.296875 234.1875 7.296875 Z M 234.1875 7.296875 "/></g></g></g></g></g><g transform="matrix(1, 0, 0, 1, 503, 0.000000000000039746)"><g clip-path="url(#cdc2c2a64a)"><g fill="#cefc8a" fill-opacity="1"><g transform="translate(0.212595, 598.588664)"><g><path d="M 96.15625 5.609375 C 77.457031 5.609375 62.097656 -0.265625 50.078125 -12.015625 C 38.054688 -23.765625 32.046875 -37.921875 32.046875 -54.484375 C 32.046875 -71.578125 38.054688 -86 50.078125 -97.75 C 62.097656 -109.507812 77.457031 -115.390625 96.15625 -115.390625 C 114.851562 -115.390625 130.210938 -109.507812 142.234375 -97.75 C 154.253906 -86 160.265625 -71.578125 160.265625 -54.484375 C 160.265625 -37.921875 154.253906 -23.765625 142.234375 -12.015625 C 130.210938 -0.265625 114.851562 5.609375 96.15625 5.609375 Z M 96.15625 5.609375 "/></g></g></g></g></g></svg>