<svg xmlns="http://www.w3.org/2000/svg" xmlns:xlink="http://www.w3.org/1999/xlink" width="1080" zoomAndPan="magnify" viewBox="0 0 810 809.999993" height="1080" preserveAspectRatio="xMidYMid meet" version="1.0"><defs><g/><clipPath id="28cfe85b07"><path d="M 8.050781 8.050781 L 801.949219 8.050781 L 801.949219 801.949219 L 8.050781 801.949219 Z M 8.050781 8.050781 " clip-rule="nonzero"/></clipPath><clipPath id="6430d371b0"><path d="M 405 8.050781 C 185.769531 8.050781 8.050781 185.769531 8.050781 405 C 8.050781 624.230469 185.769531 801.949219 405 801.949219 C 624.230469 801.949219 801.949219 624.230469 801.949219 405 C 801.949219 185.769531 624.230469 8.050781 405 8.050781 Z M 405 8.050781 " clip-rule="nonzero"/></clipPath><clipPath id="2ab66d2050"><path d="M 0.0507812 0.0507812 L 793.949219 0.0507812 L 793.949219 793.949219 L 0.0507812 793.949219 Z M 0.0507812 0.0507812 " clip-rule="nonzero"/></clipPath><clipPath id="cdb3d627f3"><path d="M 397 0.0507812 C 177.769531 0.0507812 0.0507812 177.769531 0.0507812 397 C 0.0507812 616.230469 177.769531 793.949219 397 793.949219 C 616.230469 793.949219 793.949219 616.230469 793.949219 397 C 793.949219 177.769531 616.230469 0.0507812 397 0.0507812 Z M 397 0.0507812 " clip-rule="nonzero"/></clipPath><clipPath id="3585398a5d"><rect x="0" width="794" y="0" height="794"/></clipPath><clipPath id="8bebeea925"><path d="M 94.175781 103.207031 L 147.207031 103.207031 L 147.207031 136.8125 L 94.175781 136.8125 Z M 94.175781 103.207031 " clip-rule="nonzero"/></clipPath><clipPath id="f300c8cf68"><path d="M 120.683594 103.207031 C 106.046875 103.207031 94.175781 110.730469 94.175781 120.007812 C 94.175781 129.289062 106.046875 136.8125 120.683594 136.8125 C 135.324219 136.8125 147.195312 129.289062 147.195312 120.007812 C 147.195312 110.730469 135.324219 103.207031 120.683594 103.207031 Z M 120.683594 103.207031 " clip-rule="nonzero"/></clipPath><clipPath id="fa90db8bec"><path d="M 0.175781 0.207031 L 53.207031 0.207031 L 53.207031 33.8125 L 0.175781 33.8125 Z M 0.175781 0.207031 " clip-rule="nonzero"/></clipPath><clipPath id="f94b389be2"><path d="M 26.683594 0.207031 C 12.046875 0.207031 0.175781 7.730469 0.175781 17.007812 C 0.175781 26.289062 12.046875 33.8125 26.683594 33.8125 C 41.324219 33.8125 53.195312 26.289062 53.195312 17.007812 C 53.195312 7.730469 41.324219 0.207031 26.683594 0.207031 Z M 26.683594 0.207031 " clip-rule="nonzero"/></clipPath><clipPath id="92b688765f"><rect x="0" width="54" y="0" height="34"/></clipPath><clipPath id="05e89aa7be"><path d="M 181.925781 103.207031 L 234.957031 103.207031 L 234.957031 136.8125 L 181.925781 136.8125 Z M 181.925781 103.207031 " clip-rule="nonzero"/></clipPath><clipPath id="63fe4a46d8"><path d="M 208.433594 103.207031 C 193.792969 103.207031 181.925781 110.730469 181.925781 120.007812 C 181.925781 129.289062 193.792969 136.8125 208.433594 136.8125 C 223.074219 136.8125 234.941406 129.289062 234.941406 120.007812 C 234.941406 110.730469 223.074219 103.207031 208.433594 103.207031 Z M 208.433594 103.207031 " clip-rule="nonzero"/></clipPath><clipPath id="b6d00175c1"><path d="M 0.925781 0.207031 L 53.957031 0.207031 L 53.957031 33.8125 L 0.925781 33.8125 Z M 0.925781 0.207031 " clip-rule="nonzero"/></clipPath><clipPath id="16e366d8e9"><path d="M 27.433594 0.207031 C 12.792969 0.207031 0.925781 7.730469 0.925781 17.007812 C 0.925781 26.289062 12.792969 33.8125 27.433594 33.8125 C 42.074219 33.8125 53.941406 26.289062 53.941406 17.007812 C 53.941406 7.730469 42.074219 0.207031 27.433594 0.207031 Z M 27.433594 0.207031 " clip-rule="nonzero"/></clipPath><clipPath id="e0468223cd"><rect x="0" width="54" y="0" height="34"/></clipPath><clipPath id="df66775f9b"><path d="M 0.441406 91 L 519.558594 91 L 519.558594 809.519531 L 0.441406 809.519531 Z M 0.441406 91 " clip-rule="nonzero"/></clipPath><clipPath id="38c65e4b45"><rect x="0" width="187" y="0" height="761"/></clipPath><clipPath id="bb8e875827"><path d="M 52.136719 336 L 97.476562 336 L 97.476562 362.929688 L 52.136719 362.929688 Z M 52.136719 336 " clip-rule="nonzero"/></clipPath><clipPath id="021684e9ac"><path d="M 74.816406 336 C 62.347656 336 52.242188 342.027344 52.242188 349.464844 C 52.242188 356.902344 62.347656 362.929688 74.816406 362.929688 C 87.285156 362.929688 97.394531 356.902344 97.394531 349.464844 C 97.394531 342.027344 87.285156 336 74.816406 336 Z M 74.816406 336 " clip-rule="nonzero"/></clipPath><clipPath id="22de04eb73"><path d="M 0.136719 0 L 45.398438 0 L 45.398438 26.929688 L 0.136719 26.929688 Z M 0.136719 0 " clip-rule="nonzero"/></clipPath><clipPath id="942744e30a"><path d="M 22.816406 0 C 10.347656 0 0.242188 6.027344 0.242188 13.464844 C 0.242188 20.902344 10.347656 26.929688 22.816406 26.929688 C 35.285156 26.929688 45.394531 20.902344 45.394531 13.464844 C 45.394531 6.027344 35.285156 0 22.816406 0 Z M 22.816406 0 " clip-rule="nonzero"/></clipPath><clipPath id="ec66900377"><rect x="0" width="46" y="0" height="27"/></clipPath><clipPath id="18a319fd9f"><path d="M 0.441406 0 L 234 0 L 234 384 L 0.441406 384 Z M 0.441406 0 " clip-rule="nonzero"/></clipPath><clipPath id="ab1ee587b8"><path d="M 95 0 L 389 0 L 389 384 L 95 384 Z M 95 0 " clip-rule="nonzero"/></clipPath><clipPath id="2e7a1da968"><path d="M 0.441406 0 L 297 0 L 297 662 L 0.441406 662 Z M 0.441406 0 " clip-rule="nonzero"/></clipPath><clipPath id="ba3f0df835"><rect x="0" width="297" y="0" height="662"/></clipPath><clipPath id="37388c2531"><rect x="0" width="520" y="0" height="810"/></clipPath></defs><g clip-path="url(#28cfe85b07)"><g clip-path="url(#6430d371b0)"><g transform="matrix(1, 0, 0, 1, 8, 8)"><g clip-path="url(#3585398a5d)"><g clip-path="url(#2ab66d2050)"><g clip-path="url(#cdb3d627f3)"><path fill="#3c183d" d="M 0.0507812 0.0507812 L 793.949219 0.0507812 L 793.949219 793.949219 L 0.0507812 793.949219 Z M 0.0507812 0.0507812 " fill-opacity="1" fill-rule="nonzero"/></g></g></g></g></g></g><g transform="matrix(1, 0, 0, 1, 175, 0.000000000000039746)"><g clip-path="url(#37388c2531)"><g clip-path="url(#8bebeea925)"><g clip-path="url(#f300c8cf68)"><g transform="matrix(1, 0, 0, 1, 94, 103)"><g clip-path="url(#92b688765f)"><g clip-path="url(#fa90db8bec)"><g clip-path="url(#f94b389be2)"><path fill="#d2cbfe" d="M 0.175781 0.207031 L 53.207031 0.207031 L 53.207031 33.8125 L 0.175781 33.8125 Z M 0.175781 0.207031 " fill-opacity="1" fill-rule="nonzero"/></g></g></g></g></g></g><g clip-path="url(#05e89aa7be)"><g clip-path="url(#63fe4a46d8)"><g transform="matrix(1, 0, 0, 1, 181, 103)"><g clip-path="url(#e0468223cd)"><g clip-path="url(#b6d00175c1)"><g clip-path="url(#16e366d8e9)"><path fill="#d2cbfe" d="M 0.925781 0.207031 L 53.957031 0.207031 L 53.957031 33.8125 L 0.925781 33.8125 Z M 0.925781 0.207031 " fill-opacity="1" fill-rule="nonzero"/></g></g></g></g></g></g><g clip-path="url(#df66775f9b)"><path stroke-linecap="butt" transform="matrix(0.794414, 0, 0, 0.794414, 231.855207, 406.543656)" fill="none" stroke-linejoin="miter" d="M 28.785313 38.500403 L 33.643455 38.500403 C 34.931748 38.500403 36.165952 39.011786 37.075624 39.921459 C 37.990213 40.836048 38.501597 42.070252 38.501597 43.358545 L 38.501597 267.767337 C 38.501597 314.514661 76.393138 352.411119 123.140462 352.411119 C 169.887786 352.411119 207.779327 314.514661 207.779327 267.767337 L 207.779327 38.500403 " stroke="#d2cbfe" stroke-width="77" stroke-opacity="1" stroke-miterlimit="4"/></g><g transform="matrix(1, 0, 0, 1, 287, 0.000000000000039746)"><g clip-path="url(#38c65e4b45)"><g fill="#cefc8a" fill-opacity="1"><g transform="translate(0.921894, 477.486731)"><g><path d="M 108.984375 6.359375 C 87.785156 6.359375 70.375 -0.300781 56.75 -13.625 C 43.132812 -26.945312 36.328125 -42.988281 36.328125 -61.75 C 36.328125 -81.125 43.132812 -97.472656 56.75 -110.796875 C 70.375 -124.117188 87.785156 -130.78125 108.984375 -130.78125 C 130.171875 -130.78125 147.570312 -124.117188 161.1875 -110.796875 C 174.8125 -97.472656 181.625 -81.125 181.625 -61.75 C 181.625 -42.988281 174.8125 -26.945312 161.1875 -13.625 C 147.570312 -0.300781 130.171875 6.359375 108.984375 6.359375 Z M 108.984375 6.359375 "/></g></g></g></g></g><g clip-path="url(#bb8e875827)"><g clip-path="url(#021684e9ac)"><g transform="matrix(1, 0, 0, 1, 52, 336)"><g clip-path="url(#ec66900377)"><g clip-path="url(#22de04eb73)"><g clip-path="url(#942744e30a)"><path fill="#d2cbfe" d="M 0.242188 0 L 45.371094 0 L 45.371094 26.929688 L 0.242188 26.929688 Z M 0.242188 0 " fill-opacity="1" fill-rule="nonzero"/></g></g></g></g></g></g><g clip-path="url(#18a319fd9f)"><path stroke-linecap="butt" transform="matrix(0.794414, 0, 0, 0.794414, 54.873058, 108.489624)" fill="none" stroke-linejoin="miter" d="M 14.498197 182.25731 L 14.498197 37.653828 C 14.498197 31.51231 16.937102 25.626484 21.283861 21.279725 C 25.625702 16.937884 31.511528 14.498978 37.653046 14.498978 L 60.807895 14.498978 " stroke="#d2cbfe" stroke-width="29" stroke-opacity="1" stroke-miterlimit="4"/></g><g clip-path="url(#ab1ee587b8)"><path stroke-linecap="butt" transform="matrix(0.794414, 0, 0, 0.794414, 225.906215, 108.489624)" fill="none" stroke-linejoin="miter" d="M 40.320657 182.25731 L 40.320657 34.659285 C 40.320657 29.314345 38.196449 24.18576 34.415162 20.404473 C 30.633876 16.623186 25.50529 14.498978 20.160351 14.498978 L 0.0000446481 14.498978 " stroke="#d2cbfe" stroke-width="29" stroke-opacity="1" stroke-miterlimit="4"/></g><g clip-path="url(#2e7a1da968)"><g transform="matrix(1, 0, 0, 1, 0, 0.000000000000039746)"><g clip-path="url(#ba3f0df835)"><g fill="#d2cbfe" fill-opacity="1"><g transform="translate(1.922163, 494.132517)"><g><path d="M 134.609375 6.4375 C 101.359375 6.4375 75.703125 -3.925781 57.640625 -24.65625 C 39.585938 -45.394531 30.5625 -75.789062 30.5625 -115.84375 L 30.5625 -266 L 98.671875 -266 L 98.671875 -122.265625 C 98.671875 -99.390625 103.316406 -81.875 112.609375 -69.71875 C 121.910156 -57.5625 136.570312 -51.484375 156.59375 -51.484375 C 175.539062 -51.484375 191.179688 -58.273438 203.515625 -71.859375 C 215.847656 -85.441406 222.015625 -104.390625 222.015625 -128.703125 L 222.015625 -266 L 290.671875 -266 L 290.671875 0 L 230.0625 0 L 224.703125 -45.046875 C 216.484375 -29.316406 204.59375 -16.800781 189.03125 -7.5 C 173.476562 1.789062 155.335938 6.4375 134.609375 6.4375 Z M 134.609375 6.4375 "/></g></g></g></g></g></g></g></g></svg>