<svg xmlns="http://www.w3.org/2000/svg" xmlns:xlink="http://www.w3.org/1999/xlink" width="2000" zoomAndPan="magnify" viewBox="0 0 1500 1499.999933" height="2000" preserveAspectRatio="xMidYMid meet" version="1.0"><path fill="#231f20" d="M 587.242188 1146.910156 L 902.324219 1146.910156 L 902.324219 1197.609375 L 587.242188 1197.609375 Z M 557.976562 1256.128906 L 931.589844 1256.128906 C 947.746094 1256.128906 960.839844 1243.019531 960.839844 1226.859375 L 960.839844 1117.65625 C 960.839844 1101.5 947.746094 1088.390625 931.589844 1088.390625 L 557.976562 1088.390625 C 541.820312 1088.390625 528.726562 1101.5 528.726562 1117.65625 L 528.726562 1226.859375 C 528.726562 1243.019531 541.820312 1256.128906 557.976562 1256.128906 " fill-opacity="1" fill-rule="nonzero"/><path fill="#231f20" d="M 1240.5 190.945312 C 1228.011719 269.308594 1190.914062 437.46875 1096.613281 506.550781 C 1124.652344 425.429688 1143.308594 317.046875 1148.613281 169.179688 C 1149.148438 169.210938 1149.652344 169.339844 1150.1875 169.339844 L 1221.882812 169.339844 C 1229.5 169.339844 1234.183594 173.472656 1236.277344 175.945312 C 1238.359375 178.386719 1241.683594 183.589844 1240.5 190.945312 Z M 832.015625 705.636719 C 795.726562 720.769531 772.269531 756.179688 772.269531 795.867188 L 772.269531 874.242188 C 772.269531 915.867188 806.128906 949.714844 847.738281 949.714844 L 869.617188 949.714844 C 887.683594 949.714844 902.785156 962.519531 906.398438 979.53125 L 583.179688 979.53125 C 586.777344 962.519531 601.882812 949.714844 619.945312 949.714844 L 641.839844 949.714844 C 683.449219 949.714844 717.292969 915.867188 717.292969 874.242188 L 717.292969 793.324219 C 717.292969 754.9375 695.226562 719.875 661.0625 703.992188 C 530.761719 643.390625 403.484375 547.003906 398.09375 108.421875 L 1091.484375 108.421875 C 1085.921875 599.828125 939.492188 660.878906 832.015625 705.636719 Z M 1014.457031 1292.316406 L 475.109375 1292.316406 L 475.109375 1038.050781 L 1014.457031 1038.050781 Z M 1058.445312 1391.695312 L 431.117188 1391.695312 L 431.117188 1350.835938 L 1058.445312 1350.835938 Z M 259.890625 190.960938 C 258.71875 183.589844 262.042969 178.386719 264.109375 175.945312 C 266.21875 173.472656 270.902344 169.339844 278.503906 169.339844 L 341.140625 169.339844 C 346.921875 313.535156 366.863281 420.050781 396.171875 500.597656 C 307.496094 428.261719 272.042969 267.15625 259.890625 190.960938 Z M 1280.804688 137.976562 C 1266.078125 120.707031 1244.601562 110.808594 1221.882812 110.808594 L 1150.1875 110.808594 C 1150.085938 110.808594 1150 110.835938 1149.898438 110.835938 C 1150.015625 100.371094 1150.171875 89.996094 1150.171875 79.167969 C 1150.171875 63.011719 1137.066406 49.902344 1120.910156 49.902344 L 368.65625 49.902344 C 352.5 49.902344 339.40625 63.011719 339.40625 79.167969 C 339.40625 89.980469 339.5625 100.371094 339.695312 110.808594 L 278.503906 110.808594 C 255.800781 110.808594 234.324219 120.707031 219.597656 137.976562 C 204.914062 155.175781 198.542969 177.851562 202.097656 200.183594 C 222.300781 326.804688 279.488281 541.933594 436.679688 587.328125 C 491.554688 679.722656 563.527344 723.167969 636.390625 757.046875 C 649.992188 763.375 658.777344 777.613281 658.777344 793.324219 L 658.777344 874.242188 C 658.777344 883.433594 651.019531 891.195312 641.839844 891.195312 L 619.945312 891.195312 C 569.582031 891.195312 528.207031 930.175781 524.214844 979.53125 L 445.859375 979.53125 C 429.699219 979.53125 416.59375 992.640625 416.59375 1008.796875 L 416.59375 1292.316406 L 401.851562 1292.316406 C 385.695312 1292.316406 372.601562 1305.410156 372.601562 1321.585938 L 372.601562 1420.960938 C 372.601562 1437.121094 385.695312 1450.226562 401.851562 1450.226562 L 1087.699219 1450.226562 C 1103.855469 1450.226562 1116.964844 1437.121094 1116.964844 1420.960938 L 1116.964844 1321.585938 C 1116.964844 1305.410156 1103.855469 1292.316406 1087.699219 1292.316406 L 1072.972656 1292.316406 L 1072.972656 1008.796875 C 1072.972656 992.640625 1059.878906 979.53125 1043.71875 979.53125 L 965.363281 979.53125 C 961.359375 930.175781 919.996094 891.195312 869.617188 891.195312 L 847.738281 891.195312 C 838.402344 891.195312 830.785156 883.59375 830.785156 874.242188 L 830.785156 795.867188 C 830.785156 779.882812 840.105469 765.675781 854.515625 759.675781 C 932.425781 727.214844 1006.332031 685.765625 1060.773438 588.078125 C 1220.148438 544.519531 1277.957031 327.582031 1298.292969 200.167969 C 1301.847656 177.851562 1295.472656 155.175781 1280.804688 137.976562 " fill-opacity="1" fill-rule="nonzero"/></svg>