<svg xmlns="http://www.w3.org/2000/svg" xmlns:xlink="http://www.w3.org/1999/xlink" width="2000" zoomAndPan="magnify" viewBox="0 0 1500 1499.999933" height="2000" preserveAspectRatio="xMidYMid meet" version="1.0"><defs><clipPath id="a57b12f469"><path d="M 379 28.015625 L 1358 28.015625 L 1358 1229 L 379 1229 Z M 379 28.015625 " clip-rule="nonzero"/></clipPath><clipPath id="d9bf91d018"><path d="M 142 290 L 1261 290 L 1261 1471.765625 L 142 1471.765625 Z M 142 290 " clip-rule="nonzero"/></clipPath></defs><g clip-path="url(#a57b12f469)"><path fill="#000000" d="M 380.457031 625.644531 C 380.457031 448.972656 381.246094 272.304688 379.914062 95.644531 C 379.570312 50.304688 412.632812 27.9375 447.738281 28.023438 C 662.980469 28.535156 878.214844 28.324219 1093.453125 28.164062 C 1108.652344 28.152344 1120.398438 33.113281 1131.335938 44.121094 C 1201.019531 114.234375 1271.128906 183.933594 1341.457031 253.394531 C 1352.121094 263.929688 1357.25 275.449219 1357.246094 290.316406 C 1357.160156 579.765625 1356.78125 869.222656 1357.777344 1158.671875 C 1357.9375 1205.789062 1322.671875 1228.269531 1288.714844 1228.140625 C 1085.972656 1227.371094 883.226562 1227.679688 680.484375 1227.679688 C 603.386719 1227.679688 526.269531 1226.835938 449.195312 1228.289062 C 407.726562 1229.074219 379.851562 1198.210938 380.046875 1159.933594 C 380.964844 981.84375 380.457031 803.746094 380.457031 625.648438 Z M 1085.839844 66.554688 C 1081.234375 66.554688 1077.746094 66.554688 1074.257812 66.554688 C 867.945312 66.570312 661.636719 66.582031 455.332031 66.601562 C 429.8125 66.601562 421.203125 75.058594 421.203125 100.398438 C 421.191406 287.773438 421.203125 475.136719 421.21875 662.511719 C 421.230469 815.617188 421.21875 968.726562 421.28125 1121.832031 C 421.292969 1144.589844 431.023438 1154.871094 452.371094 1154.871094 C 729.351562 1154.90625 1006.335938 1154.910156 1283.3125 1154.894531 C 1305.957031 1154.894531 1315.785156 1144.746094 1315.792969 1122.191406 C 1315.824219 849.898438 1315.898438 577.601562 1315.925781 305.308594 C 1315.925781 302.558594 1315.496094 299.804688 1315.265625 297.132812 C 1313.65625 296.644531 1312.6875 296.152344 1311.683594 296.078125 C 1253.347656 291.789062 1195.015625 287.503906 1136.671875 283.292969 C 1111.84375 281.5 1092.863281 262.867188 1091.859375 238.527344 C 1090.824219 213.582031 1090.292969 188.609375 1089.425781 163.660156 C 1088.304688 131.644531 1087.070312 99.628906 1085.84375 66.554688 Z M 1085.839844 66.554688 " fill-opacity="1" fill-rule="nonzero"/></g><g clip-path="url(#d9bf91d018)"><path fill="#000000" d="M 1260.261719 1322.121094 C 1259.816406 1335.84375 1250.554688 1345.164062 1236.226562 1347.183594 C 1169.582031 1356.566406 1102.917969 1365.785156 1036.285156 1375.246094 C 977.730469 1383.550781 919.222656 1392.234375 860.664062 1400.507812 C 788.328125 1410.726562 715.941406 1420.589844 643.605469 1430.8125 C 560.007812 1442.625 476.445312 1454.699219 392.859375 1466.5625 C 379.449219 1468.464844 366 1470.226562 352.515625 1471.425781 C 313.511719 1474.886719 284.480469 1449.984375 279.691406 1411.152344 C 271.882812 1347.828125 263.058594 1284.625 254.648438 1221.371094 C 244.457031 1144.722656 234.289062 1068.074219 224.03125 991.4375 C 215.851562 930.382812 207.417969 869.367188 199.324219 808.300781 C 192.433594 756.363281 185.929688 704.378906 179.152344 652.425781 C 171.785156 595.90625 164.09375 539.425781 156.9375 482.878906 C 151.746094 441.851562 146.675781 400.792969 142.519531 359.644531 C 138.863281 323.46875 166.890625 292.375 203.136719 291.042969 C 210.203125 290.78125 217.292969 291.003906 225.203125 291.003906 C 226.199219 305.148438 227.203125 318.191406 228.03125 331.253906 C 234.027344 425.964844 239.878906 520.6875 245.996094 615.390625 C 252.246094 712.191406 258.769531 808.972656 265.128906 905.769531 C 271.636719 1004.742188 278.097656 1103.71875 284.558594 1202.695312 C 286.601562 1234.011719 287.222656 1265.496094 290.917969 1296.617188 C 297.03125 1348.195312 334.941406 1383.980469 387.40625 1381.878906 C 450.132812 1379.363281 512.769531 1374.28125 575.425781 1370.019531 C 630.933594 1366.242188 686.40625 1362.003906 741.90625 1358.085938 C 819.832031 1352.59375 897.765625 1347.199219 975.703125 1341.78125 C 1031.226562 1337.917969 1086.753906 1334.136719 1142.273438 1330.222656 C 1179.265625 1327.617188 1216.25 1324.828125 1253.234375 1322.15625 C 1255.316406 1322.003906 1257.421875 1322.136719 1260.28125 1322.136719 Z M 1260.261719 1322.121094 " fill-opacity="1" fill-rule="nonzero"/></g><path fill="#000000" d="M 343.445312 160.53125 C 343.445312 166.292969 343.445312 170.148438 343.445312 173.996094 C 343.492188 412.023438 343.558594 650.050781 343.5625 888.078125 C 343.5625 980.863281 344.300781 1073.660156 342.992188 1166.429688 C 342.222656 1221.269531 387.210938 1265.917969 440.40625 1265.289062 C 524.976562 1264.292969 609.578125 1265.246094 694.160156 1265.257812 C 872.261719 1265.277344 1050.359375 1265.230469 1228.460938 1265.210938 C 1245.460938 1265.210938 1262.457031 1265.210938 1279.585938 1265.210938 C 1276.824219 1275.992188 1265.503906 1283.96875 1251.046875 1285.03125 C 1219.394531 1287.347656 1187.710938 1289.304688 1156.046875 1291.53125 C 1088.796875 1296.261719 1021.558594 1301.148438 954.308594 1305.820312 C 897 1309.804688 839.671875 1313.457031 782.367188 1317.46875 C 716.5625 1322.078125 650.777344 1327.039062 584.96875 1331.625 C 520.914062 1336.089844 456.863281 1340.65625 392.765625 1344.425781 C 357.71875 1346.484375 328.777344 1317.691406 326.816406 1282.605469 C 323.371094 1220.660156 318.65625 1158.789062 314.675781 1096.871094 C 311.492188 1047.402344 308.695312 997.90625 305.570312 948.425781 C 301.585938 885.421875 297.417969 822.4375 293.371094 759.433594 C 290.238281 710.691406 287.207031 661.945312 284.0625 613.203125 C 280.179688 553.046875 276.113281 492.898438 272.339844 432.738281 C 267.945312 362.59375 263.300781 292.453125 259.71875 222.265625 C 258.0625 189.796875 285.761719 161.65625 318.246094 160.566406 C 326.058594 160.304688 333.878906 160.527344 343.453125 160.527344 Z M 343.445312 160.53125 " fill-opacity="1" fill-rule="nonzero"/><path fill="#000000" d="M 867.011719 843.941406 C 764.921875 843.941406 662.828125 843.964844 560.738281 843.851562 C 556.21875 843.851562 551.316406 843.476562 547.253906 841.738281 C 539.578125 838.453125 534.886719 831.277344 537.585938 823.671875 C 539.625 817.9375 545.863281 813.273438 551.109375 809.300781 C 553.480469 807.511719 558.007812 808.363281 561.554688 808.355469 C 765.382812 808.257812 969.203125 808.175781 1173.027344 808.214844 C 1177.929688 808.214844 1184.210938 807.925781 1187.40625 810.644531 C 1192.039062 814.582031 1197.148438 821.199219 1197.042969 826.578125 C 1196.933594 831.867188 1191.457031 838.179688 1186.664062 841.867188 C 1183.304688 844.449219 1177.136719 843.875 1172.222656 843.875 C 1070.484375 843.96875 968.753906 843.945312 867.019531 843.941406 Z M 867.011719 843.941406 " fill-opacity="1" fill-rule="nonzero"/><path fill="#000000" d="M 867.53125 437.132812 C 765.460938 437.132812 663.386719 437.132812 561.316406 437.125 C 558.820312 437.125 556.296875 437.28125 553.824219 437.007812 C 543.960938 435.917969 536.75 427.871094 536.871094 418.273438 C 536.984375 409.277344 543.085938 402.777344 553.035156 401.574219 C 557.265625 401.058594 561.582031 401.210938 565.863281 401.214844 C 766.082031 401.277344 966.296875 401.351562 1166.515625 401.457031 C 1171.851562 401.457031 1177.273438 401.417969 1182.515625 402.257812 C 1192.90625 403.917969 1197.457031 409.785156 1197.035156 419.929688 C 1196.636719 429.472656 1190.78125 436.078125 1181.234375 436.945312 C 1175.566406 437.460938 1169.824219 437.136719 1164.117188 437.136719 C 1065.253906 437.144531 966.394531 437.136719 867.53125 437.136719 Z M 867.53125 437.132812 " fill-opacity="1" fill-rule="nonzero"/><path fill="#000000" d="M 866.683594 537.664062 C 765.699219 537.675781 664.714844 537.675781 563.730469 537.675781 C 560.519531 537.675781 557.28125 537.898438 554.101562 537.574219 C 544.082031 536.550781 536.882812 528.664062 536.957031 519.058594 C 537.023438 509.753906 543.628906 502.941406 554.136719 502.207031 C 561.953125 501.667969 569.832031 501.890625 577.679688 501.882812 C 775.722656 501.824219 973.757812 501.761719 1171.796875 501.734375 C 1189.050781 501.734375 1196.929688 507.316406 1197.136719 519.386719 C 1197.304688 529.179688 1192.140625 535.691406 1182.449219 537.308594 C 1178.96875 537.886719 1175.332031 537.636719 1171.769531 537.636719 C 1070.070312 537.648438 968.375 537.648438 866.683594 537.660156 Z M 866.683594 537.664062 " fill-opacity="1" fill-rule="nonzero"/><path fill="#000000" d="M 867.851562 739.40625 C 765.824219 739.402344 663.796875 739.40625 561.769531 739.386719 C 558.203125 739.386719 554.515625 739.742188 551.105469 738.964844 C 541.878906 736.863281 536.949219 730.375 537.140625 721.261719 C 537.328125 711.980469 542.78125 706.121094 552.28125 704.820312 C 555.089844 704.433594 557.980469 704.617188 560.835938 704.617188 C 765.605469 704.628906 970.378906 704.574219 1175.144531 704.988281 C 1181.773438 705 1189.851562 708.339844 1194.5 712.917969 C 1197.5625 715.941406 1198.066406 725.726562 1195.417969 729.339844 C 1191.84375 734.222656 1184.191406 738.753906 1178.214844 738.84375 C 1126.496094 739.613281 1074.765625 739.378906 1023.035156 739.402344 C 971.304688 739.425781 919.582031 739.402344 867.851562 739.402344 Z M 867.851562 739.40625 " fill-opacity="1" fill-rule="nonzero"/><path fill="#000000" d="M 808.15625 944.765625 C 726.054688 944.765625 643.957031 944.765625 561.859375 944.765625 C 558.648438 944.765625 555.382812 945.035156 552.234375 944.574219 C 543.378906 943.277344 536.453125 935.363281 536.984375 926.679688 C 537.554688 917.410156 542.425781 911.011719 551.972656 910.019531 C 560.816406 909.109375 569.785156 909.109375 578.699219 909.109375 C 737.183594 909.085938 895.667969 909.128906 1054.160156 909.152344 C 1054.519531 909.152344 1054.875 909.152344 1055.230469 909.152344 C 1071.753906 909.285156 1080.617188 915.511719 1080.808594 927.128906 C 1081 938.953125 1072.71875 944.753906 1055.523438 944.761719 C 973.070312 944.769531 890.613281 944.761719 808.15625 944.765625 Z M 808.15625 944.765625 " fill-opacity="1" fill-rule="nonzero"/><path fill="#000000" d="M 807.828125 603 C 890.601562 602.992188 973.363281 602.984375 1056.136719 603.03125 C 1059.675781 603.03125 1063.335938 603.117188 1066.738281 603.976562 C 1075.757812 606.265625 1081.144531 612.273438 1080.644531 621.667969 C 1080.152344 631.003906 1074.089844 636.363281 1065.121094 638.199219 C 1062.367188 638.757812 1059.429688 638.460938 1056.582031 638.460938 C 891.757812 638.460938 726.929688 638.445312 562.105469 638.425781 C 559.960938 638.425781 557.820312 638.511719 555.679688 638.386719 C 544.84375 637.765625 536.925781 630.113281 536.933594 620.335938 C 536.945312 610.726562 543.894531 603.820312 555.25 603.710938 C 600.199219 603.273438 645.148438 603.140625 690.097656 603.027344 C 729.339844 602.925781 768.585938 603.003906 807.828125 603 Z M 807.828125 603 " fill-opacity="1" fill-rule="nonzero"/><path fill="#000000" d="M 654.820312 277.546875 C 654.820312 291.449219 654.9375 305.347656 654.789062 319.25 C 654.648438 331.652344 649.679688 336.699219 637.242188 336.816406 C 609.804688 337.066406 582.363281 337.179688 554.925781 337.175781 C 542.898438 337.175781 537.140625 331.613281 537.050781 319.5625 C 536.832031 291.410156 536.816406 263.246094 536.972656 235.085938 C 537.035156 223.960938 542.296875 218.6875 553.421875 218.621094 C 582.296875 218.449219 611.171875 218.5 640.046875 218.632812 C 650.390625 218.683594 654.773438 223.101562 654.9375 233.710938 C 655.167969 248.320312 654.996094 262.9375 654.996094 277.550781 L 654.832031 277.550781 Z M 654.820312 277.546875 " fill-opacity="1" fill-rule="nonzero"/><path fill="#000000" d="M 872.046875 294.09375 C 824.570312 294.09375 777.097656 294.175781 729.621094 293.964844 C 724.8125 293.941406 718.101562 293.722656 715.648438 290.78125 C 711.582031 285.898438 707.597656 278.261719 708.578125 272.664062 C 709.457031 267.648438 716.785156 263.414062 721.886719 259.679688 C 723.789062 258.28125 727.4375 259.175781 730.289062 259.167969 C 825.242188 259.128906 920.195312 259.15625 1015.148438 259 C 1023.214844 258.988281 1031.046875 260.175781 1033.960938 268.085938 C 1035.824219 273.136719 1036.199219 281.378906 1033.28125 284.898438 C 1029.386719 289.589844 1021.671875 293.484375 1015.539062 293.574219 C 967.714844 294.261719 919.878906 293.953125 872.046875 293.953125 Z M 872.046875 294.09375 " fill-opacity="1" fill-rule="nonzero"/></svg>