<svg xmlns="http://www.w3.org/2000/svg" xmlns:xlink="http://www.w3.org/1999/xlink" width="2000" zoomAndPan="magnify" viewBox="0 0 1500 1499.999933" height="2000" preserveAspectRatio="xMidYMid meet" version="1.0"><path fill="#000000" d="M 1401.453125 782.539062 L 1341.511719 782.539062 L 1341.511719 1397.316406 C 1341.382812 1399.386719 1341.15625 1401.441406 1340.824219 1403.488281 C 1340.496094 1405.53125 1340.070312 1407.554688 1339.542969 1409.558594 C 1339.015625 1411.5625 1338.394531 1413.535156 1337.675781 1415.480469 C 1336.957031 1417.421875 1336.144531 1419.324219 1335.242188 1421.191406 C 1334.335938 1423.054688 1333.34375 1424.867188 1332.261719 1426.636719 C 1331.179688 1428.402344 1330.015625 1430.113281 1328.769531 1431.765625 C 1327.519531 1433.417969 1326.195312 1435.007812 1324.792969 1436.53125 C 1323.390625 1438.054688 1321.914062 1439.507812 1320.371094 1440.886719 C 1318.828125 1442.269531 1317.21875 1443.570312 1315.546875 1444.792969 C 1313.875 1446.015625 1312.148438 1447.15625 1310.367188 1448.210938 C 1308.582031 1449.265625 1306.753906 1450.230469 1304.878906 1451.105469 C 1303 1451.984375 1301.085938 1452.765625 1299.132812 1453.457031 C 1297.179688 1454.144531 1295.199219 1454.738281 1293.1875 1455.234375 C 1291.175781 1455.730469 1289.144531 1456.128906 1287.097656 1456.425781 C 1285.046875 1456.726562 1282.988281 1456.921875 1280.917969 1457.019531 C 1278.851562 1457.117188 1276.78125 1457.113281 1274.710938 1457.007812 L 920.613281 1457.007812 L 920.613281 1037.828125 C 920.613281 1036.394531 920.542969 1034.964844 920.402344 1033.539062 C 920.261719 1032.109375 920.050781 1030.695312 919.773438 1029.285156 C 919.492188 1027.878906 919.144531 1026.492188 918.730469 1025.117188 C 918.3125 1023.746094 917.832031 1022.398438 917.28125 1021.074219 C 916.734375 1019.75 916.121094 1018.453125 915.445312 1017.1875 C 914.769531 1015.921875 914.035156 1014.695312 913.238281 1013.503906 C 912.441406 1012.308594 911.589844 1011.160156 910.679688 1010.050781 C 909.769531 1008.941406 908.808594 1007.878906 907.796875 1006.867188 C 906.78125 1005.851562 905.722656 1004.890625 904.613281 1003.980469 C 903.507812 1003.070312 902.355469 1002.214844 901.164062 1001.417969 C 899.972656 1000.621094 898.746094 999.886719 897.480469 999.207031 C 896.21875 998.53125 894.921875 997.917969 893.597656 997.371094 C 892.273438 996.820312 890.925781 996.335938 889.554688 995.921875 C 888.183594 995.503906 886.792969 995.15625 885.386719 994.875 C 883.980469 994.59375 882.566406 994.382812 881.140625 994.242188 C 879.710938 994.101562 878.28125 994.027344 876.847656 994.027344 L 619.9375 994.027344 C 618.503906 994.027344 617.074219 994.097656 615.644531 994.238281 C 614.21875 994.378906 612.800781 994.589844 611.394531 994.871094 C 609.988281 995.148438 608.601562 995.5 607.226562 995.914062 C 605.855469 996.332031 604.507812 996.8125 603.183594 997.363281 C 601.859375 997.910156 600.5625 998.523438 599.300781 999.199219 C 598.035156 999.878906 596.808594 1000.613281 595.613281 1001.410156 C 594.421875 1002.207031 593.273438 1003.0625 592.164062 1003.972656 C 591.054688 1004.882812 589.996094 1005.84375 588.980469 1006.859375 C 587.96875 1007.875 587.007812 1008.933594 586.097656 1010.042969 C 585.1875 1011.152344 584.335938 1012.304688 583.539062 1013.496094 C 582.742188 1014.6875 582.007812 1015.917969 581.332031 1017.183594 C 580.65625 1018.449219 580.042969 1019.742188 579.496094 1021.070312 C 578.949219 1022.394531 578.464844 1023.742188 578.050781 1025.117188 C 577.636719 1026.488281 577.289062 1027.878906 577.007812 1029.285156 C 576.730469 1030.691406 576.519531 1032.109375 576.378906 1033.535156 C 576.242188 1034.964844 576.171875 1036.394531 576.171875 1037.828125 L 576.171875 1456.984375 L 222.046875 1456.984375 C 219.984375 1457.09375 217.921875 1457.101562 215.859375 1457.007812 C 213.796875 1456.917969 211.746094 1456.722656 209.703125 1456.429688 C 207.65625 1456.136719 205.632812 1455.746094 203.628906 1455.253906 C 201.625 1454.761719 199.648438 1454.175781 197.699219 1453.488281 C 195.75 1452.804688 193.84375 1452.027344 191.96875 1451.15625 C 190.097656 1450.285156 188.273438 1449.324219 186.496094 1448.273438 C 184.71875 1447.222656 182.996094 1446.085938 181.332031 1444.867188 C 179.664062 1443.648438 178.0625 1442.351562 176.523438 1440.976562 C 174.980469 1439.601562 173.511719 1438.152344 172.117188 1436.632812 C 170.71875 1435.113281 169.398438 1433.53125 168.152344 1431.882812 C 166.910156 1430.234375 165.75 1428.527344 164.675781 1426.765625 C 163.597656 1425.003906 162.613281 1423.191406 161.714844 1421.332031 C 160.8125 1419.472656 160.007812 1417.574219 159.292969 1415.636719 C 158.582031 1413.699219 157.964844 1411.734375 157.445312 1409.734375 C 156.921875 1407.734375 156.5 1405.71875 156.179688 1403.679688 C 155.855469 1401.636719 155.632812 1399.589844 155.507812 1397.527344 L 155.507812 782.539062 L 95.304688 782.539062 C 28.585938 782.539062 -7.5625 719.707031 36.148438 679.386719 L 694.980469 70.1875 C 697.039062 68.445312 699.167969 66.796875 701.371094 65.242188 C 703.570312 63.6875 705.839844 62.234375 708.167969 60.878906 C 710.496094 59.527344 712.882812 58.277344 715.324219 57.132812 C 717.761719 55.988281 720.25 54.953125 722.78125 54.03125 C 725.3125 53.105469 727.878906 52.292969 730.480469 51.59375 C 733.082031 50.894531 735.710938 50.3125 738.367188 49.847656 C 741.019531 49.378906 743.6875 49.03125 746.375 48.796875 C 749.058594 48.566406 751.75 48.453125 754.445312 48.457031 C 757.136719 48.464844 759.828125 48.585938 762.511719 48.832031 C 765.195312 49.074219 767.863281 49.433594 770.515625 49.910156 C 773.167969 50.386719 775.792969 50.980469 778.394531 51.691406 C 780.992188 52.398438 783.558594 53.222656 786.085938 54.15625 C 788.613281 55.089844 791.09375 56.136719 793.527344 57.289062 C 795.964844 58.441406 798.34375 59.699219 800.667969 61.0625 C 802.992188 62.425781 805.253906 63.890625 807.449219 65.453125 C 809.644531 67.015625 811.769531 68.671875 813.816406 70.421875 C 1029.503906 273.480469 1245.28125 476.539062 1461.160156 679.597656 C 1504.0625 720.308594 1467.9375 782.539062 1401.453125 782.539062 Z M 1401.453125 782.539062 " fill-opacity="1" fill-rule="nonzero"/></svg>